<?xml version="1.0" encoding="UTF-8"?>
<!DOCTYPE svg PUBLIC "-//W3C//DTD SVG 1.1//EN" "http://www.w3.org/Graphics/SVG/1.1/DTD/svg11.dtd">
<!-- Creator: CorelDRAW X5 -->
<svg xmlns="http://www.w3.org/2000/svg" xml:space="preserve" width="135.467mm" height="43.8572mm" style="shape-rendering:geometricPrecision; text-rendering:geometricPrecision; image-rendering:optimizeQuality; fill-rule:evenodd; clip-rule:evenodd"
viewBox="0 0 13547 4386"
 xmlns:xlink="http://www.w3.org/1999/xlink"
 xmlns:svg="http://www.w3.org/2000/svg">
 <defs>
  <style type="text/css">
   <![CDATA[
    .fil0 {fill:#1334CA;fill-rule:nonzero}
   ]]>
  </style>
 </defs>
 <g id="Layer_x0020_1">
  <metadata id="CorelCorpID_0Corel-Layer"/>
 </g>
 <g id="__x0023_Layer_x0020_1">
  <metadata id="CorelCorpID_1Corel-Layer"/>
  <path class="fil0" d="M8823 -2c-962,0 -1821,499 -1821,1420 0,1056 1524,1129 1524,1660 0,223 -256,423 -693,423 -621,0 -1085,-279 -1085,-279l-199 930c0,0 534,236 1244,236 1052,0 1879,-523 1879,-1460 0,-1116 -1531,-1187 -1531,-1680 0,-175 210,-367 646,-367 492,0 894,203 894,203l194 -898c0,0 -437,-188 -1053,-188l0 0zm-8800 68l0 0 -23 136c0,0 405,74 769,222 469,169 503,268 582,574l861 3320 1154 0 1779 -4252 -1152 0 -1143 2891 -466 -2450c-43,-280 -259,-440 -525,-440l-1836 0zm5585 0l0 0 -904 4252 1098 0 900 -4252 -1095 0zm6126 0l0 0c-265,0 -405,142 -508,390l-1609 3862 1152 0 223 -644 1403 0 136 644 1016 0 -887 -4252 -926 0zm150 1149l0 0 341 1595 -915 0 573 -1595 0 0z"/>
 </g>
</svg>
